<?xml version="1.0" encoding="UTF-8"?>
<svg id="Calque_2" data-name="Calque 2" xmlns="http://www.w3.org/2000/svg" viewBox="0 0 1343.5 452.44">
  <defs>
    <style>
      .cls-1 {
        fill: #1d1d1b;
        stroke-width: 0px;
      }
    </style>
  </defs>
  <g id="Calque_1-2" data-name="Calque 1">
    <g>
      <path class="cls-1" d="m805.15,219.74c1.62,0,2.97-1.09,3.32-2.66L855.23,4.13c.23-1.03,0-2.02-.67-2.85-.66-.83-1.58-1.27-2.64-1.27h-36.15c-1.61,0-2.97,1.09-3.32,2.67l-46.76,212.94c-.22,1.04,0,2.03.67,2.86.66.83,1.58,1.27,2.64,1.27h36.15Zm-165.75-116.23c.28-1.29,1.21-2.24,2.49-2.56,1.28-.32,2.56.08,3.42,1.09l96,112.95c.86,1.01,2.13,1.42,3.4,1.1,1.28-.32,2.22-1.27,2.49-2.57l40.4-184.01c.29-1.31-.17-2.6-1.24-3.42l-29.22-22.51c-.94-.73-2.11-.91-3.24-.5-1.12.41-1.9,1.29-2.15,2.47l-24.66,112.29c-.28,1.29-1.22,2.25-2.51,2.57-1.28.31-2.56-.11-3.41-1.12L625.77,4.85c-.85-1.02-2.12-1.43-3.42-1.12-1.28.32-2.22,1.28-2.51,2.57l-45.93,209.17c-.22,1.03.01,2.02.68,2.85.67.83,1.57,1.27,2.64,1.27h33.96c1.61,0,2.96-1.09,3.31-2.67l24.91-113.41Zm-89.81,116.23c1.61,0,2.97-1.09,3.31-2.66L599.66,4.13c.23-1.03,0-2.02-.67-2.85-.66-.83-1.58-1.27-2.64-1.27h-36.15c-1.61,0-2.97,1.09-3.32,2.67l-46.76,212.94c-.23,1.04,0,2.03.67,2.86.67.83,1.58,1.27,2.65,1.27h36.15Zm-162.88-108.17L472.32,6.56c.89-1.1,2.29-1.52,3.64-1.1,1.35.43,2.26,1.56,2.38,2.97l16.71,207.49c.08.97-.22,1.85-.89,2.58-.67.72-1.51,1.09-2.49,1.09h-37c-1.79,0-3.26-1.37-3.39-3.15l-8.1-106.56c-.1-1.38-.97-2.52-2.3-2.96-1.32-.44-2.7-.07-3.62.97l-67.49,76.05c-.77.87-1.84,1.27-3,1.11-1.16-.16-2.09-.83-2.6-1.88l-36.62-75.17c-.58-1.18-1.71-1.9-3.02-1.91-1.32,0-2.45.67-3.05,1.85l-56.27,109.8c-.59,1.16-1.72,1.85-3.02,1.85h-32.56c-1.21,0-2.25-.59-2.89-1.62-.63-1.04-.68-2.24-.12-3.32L332.83,6.63c.62-1.22,1.82-1.91,3.18-1.84,1.35.06,2.49.86,2.99,2.12l41.94,103.78c.46,1.15,1.41,1.9,2.63,2.09,1.23.18,2.36-.25,3.14-1.21"/>
      <path class="cls-1" d="m173.74,218.67c-3.18,1.98-5.54,4.38-7.09,7.2l-5.93,10.17c-.99,1.83-1.48,3.52-1.48,5.08,0,3.39,1.9,5.08,5.71,5.08,5.09,0,7.62,1.2,7.62,3.6,0,2.12-1.83,3.81-5.5,5.08-2.82.99-5.44,1.48-7.83,1.48-2.83,0-5.82.99-9,2.97-3.17,1.97-5.54,4.37-7.09,7.19l-103.97,180.2c-2.11,3.66-4.38,5.5-6.77,5.5-1.27,0-2.33-.63-3.18-1.91L1.27,402.47c-.85-1.27-1.27-3.04-1.27-5.29,0-3.96,1.06-7.77,3.18-11.44l98.25-170.03c1.55-2.82,3.87-5.21,6.98-7.2,3.1-1.98,6.07-2.97,8.9-2.97h71.14c5.09,0,7.62,1.2,7.62,3.61,0,2.11-1.83,3.81-5.5,5.08-2.82.99-5.44,1.48-7.84,1.48-2.83,0-5.82.99-9,2.97"/>
      <path class="cls-1" d="m307.87,266.53c3.81,0,5.72,1.69,5.72,5.09,0,1.54-.49,3.24-1.48,5.08l-11.86,20.33c-1.56,2.83-3.92,5.23-7.09,7.2-3.17,1.98-6.11,2.97-8.79,2.97h-50.82c-3.95,0-5.93-1.7-5.93-5.09,0-1.54.5-3.24,1.49-5.08l5.92-10.16c.99-1.83,1.48-3.53,1.48-5.08,0-3.39-1.91-5.09-5.72-5.09-2.83,0-5.79.99-8.9,2.97-3.11,1.96-5.51,4.37-7.21,7.19l-47.13,81.23c-1.56,2.85-3.91,5.27-7.08,7.26-3.17,1.99-6.1,2.98-8.77,2.98h-50.72c-3.94,0-5.91-1.69-5.91-5.08,0-1.55.49-3.25,1.48-5.09l52.94-91.47c1.55-2.82,3.92-5.22,7.09-7.2,3.18-1.98,6.18-2.97,9-2.97h142.29Z"/>
      <path class="cls-1" d="m364.86,330.47c-3.11,1.97-5.44,4.36-6.99,7.17l-11.88,20.26c-.85,1.86-1.28,3.57-1.28,5.13,0,3.43,1.9,5.14,5.72,5.14,2.82,0,5.82-.99,9-2.97,3.18-1.98,5.54-4.37,7.1-7.2l5.93-10.16c1.55-2.82,3.92-5.23,7.09-7.2,3.18-1.98,6.18-2.96,9-2.96h50.82c3.81,0,5.72,1.69,5.72,5.08,0,1.56-.5,3.25-1.48,5.09l-11.86,20.33c-1.56,2.82-3.92,5.22-7.09,7.2-3.17,1.97-6.11,2.96-8.79,2.96h-142.29c-3.95,0-5.93-1.69-5.93-5.09,0-1.54.5-3.24,1.49-5.08l52.93-91.47c1.56-2.83,3.92-5.23,7.1-7.2,3.17-1.98,6.17-2.96,8.99-2.96h142.3c3.81,0,5.72,1.69,5.72,5.08,0,1.56-.5,3.25-1.49,5.09l-23.53,40.65c-1.56,2.83-3.92,5.23-7.1,7.2-3.19,1.98-6.19,2.96-9.01,2.96h-71.25c-2.83,0-5.8,1-8.91,2.96m10.54-23.42c-.99,1.87-1.47,3.58-1.47,5.15,0,3.43,1.98,5.15,5.93,5.15,2.82,0,5.78-.99,8.9-2.97,3.1-1.97,5.51-4.37,7.19-7.2l11.65-20.32c.99-1.84,1.48-3.53,1.48-5.08,0-3.4-1.91-5.09-5.73-5.09-2.83,0-5.8.98-8.91,2.95-3.13,1.97-5.52,4.36-7.23,7.18l-11.8,20.22Z"/>
      <path class="cls-1" d="m537.43,330.47c-3.11,1.97-5.44,4.36-6.99,7.17l-11.88,20.26c-.85,1.86-1.28,3.57-1.28,5.13,0,3.43,1.9,5.14,5.72,5.14,2.82,0,5.82-.99,9-2.97,3.18-1.98,5.54-4.37,7.1-7.2l5.93-10.16c1.55-2.82,3.92-5.23,7.09-7.2,3.18-1.98,6.18-2.96,9-2.96h50.82c3.81,0,5.71,1.69,5.71,5.08,0,1.56-.49,3.25-1.47,5.09l-11.86,20.33c-1.56,2.82-3.92,5.22-7.09,7.2-3.17,1.97-6.11,2.96-8.79,2.96h-142.29c-3.95,0-5.93-1.69-5.93-5.09,0-1.54.5-3.24,1.49-5.08l52.93-91.47c1.56-2.83,3.92-5.23,7.1-7.2,3.17-1.98,6.17-2.96,8.99-2.96h142.3c3.81,0,5.72,1.69,5.72,5.08,0,1.56-.5,3.25-1.49,5.09l-23.53,40.65c-1.56,2.83-3.92,5.23-7.1,7.2-3.19,1.98-6.19,2.96-9.01,2.96h-71.25c-2.83,0-5.8,1-8.91,2.96m10.54-23.42c-.99,1.87-1.47,3.58-1.47,5.15,0,3.43,1.98,5.15,5.93,5.15,2.82,0,5.78-.99,8.9-2.97,3.11-1.97,5.51-4.37,7.19-7.2l11.65-20.32c.99-1.84,1.48-3.53,1.48-5.08,0-3.4-1.91-5.09-5.73-5.09-2.83,0-5.8.98-8.91,2.95-3.13,1.97-5.54,4.36-7.23,7.18l-11.8,20.22Z"/>
      <path class="cls-1" d="m753.37,307.18c-3.96,0-5.93-1.69-5.93-5.09,0-1.54.49-3.24,1.48-5.08l5.93-10.16c.99-1.83,1.49-3.53,1.49-5.08,0-3.39-1.92-5.08-5.73-5.08-2.82,0-5.8.99-8.9,2.96-3.11,1.98-5.5,4.37-7.2,7.19l-11.8,20.24c-1.01,1.85-1.52,3.56-1.52,5.13,0,3.42,1.98,5.13,5.93,5.13h71.14c3.96,0,5.93,1.71,5.93,5.09,0,1.56-.56,3.24-1.7,5.08l-23.5,40.66c-1.56,2.82-3.91,5.23-7.1,7.21-3.18,1.97-6.11,2.96-8.79,2.96h-142.29c-3.95,0-5.93-1.69-5.93-5.08,0-1.56.5-3.25,1.48-5.09l11.86-20.32c1.55-2.83,3.92-5.23,7.09-7.21,3.18-1.98,6.18-2.97,9-2.97h50.82c3.81,0,5.72,1.7,5.72,5.09,0,1.56-.5,3.24-1.48,5.09l-5.93,10.16c-.99,1.84-1.49,3.54-1.49,5.08,0,3.39,1.91,5.08,5.72,5.08,2.83,0,5.83-.98,9.02-2.96,3.17-1.97,5.54-4.37,7.09-7.19l11.86-20.33c.97-1.84,1.47-3.53,1.47-5.09,0-3.39-1.98-5.09-5.93-5.09h-71.15c-3.81,0-5.72-1.69-5.72-5.08,0-1.56.49-3.24,1.48-5.09l23.51-40.65c1.55-2.82,3.91-5.22,7.09-7.2,3.17-1.98,6.17-2.97,8.99-2.97h142.3c3.81,0,5.71,1.7,5.71,5.09,0,1.55-.49,3.25-1.47,5.08l-11.86,20.33c-1.56,2.83-3.92,5.23-7.1,7.2-3.17,1.98-6.1,2.97-8.78,2.97h-50.82Z"/>
      <path class="cls-1" d="m811.81,446.93c-2.12,3.68-4.38,5.5-6.78,5.5-1.27,0-2.33-.7-3.17-2.11l-27.95-47.65c-.85-1.41-1.27-3.17-1.27-5.29,0-4.1,1.05-7.9,3.17-11.43l98.25-170.24c1.56-2.83,3.92-5.22,7.09-7.2,3.18-1.98,6.18-2.97,9-2.97h50.82c3.81,0,5.72,1.7,5.72,5.09,0,1.55-.49,3.24-1.48,5.08l-11.85,20.33c-.99,1.84-1.49,3.53-1.49,5.09,0,3.38,1.98,5.08,5.93,5.08,5.08,0,7.62,1.2,7.62,3.59,0,2.11-1.83,3.81-5.5,5.09-2.97.99-5.65,1.47-8.05,1.47-2.82,0-5.79.99-8.88,2.97-3.11,1.98-5.5,4.37-7.21,7.2l-103.96,180.41Z"/>
      <path class="cls-1" d="m947.96,402.68c-.99-1.42-1.48-3.32-1.48-5.72,0-3.53.84-6.78,2.53-9.74.85-1.42,1.27-2.75,1.27-4.03,0-3.24-2.05-4.86-6.14-4.86h-71.15c-3.96,0-5.93-1.7-5.93-5.09,0-1.56.5-3.24,1.49-5.08l52.93-91.48c1.54-2.82,3.92-5.22,7.09-7.2,3.18-1.98,6.18-2.97,9-2.97h50.82c3.81,0,5.72,1.7,5.72,5.08,0,1.56-.5,3.25-1.49,5.08l-47.01,81.31c-.99,1.84-1.48,3.53-1.48,5.09,0,3.38,1.91,5.08,5.72,5.08,2.82,0,5.81-.99,8.99-2.97,3.18-1.98,5.54-4.38,7.09-7.21l47-81.31c1.56-2.81,3.92-5.22,7.1-7.19,3.17-1.97,6.18-2.96,9-2.96h50.83c3.81,0,5.72,1.7,5.72,5.08,0,1.56-.49,3.25-1.48,5.08l-98.25,170.24c-2.11,3.67-4.38,5.5-6.78,5.5-1.27,0-2.33-.63-3.19-1.91l-27.94-47.85Z"/>
      <path class="cls-1" d="m1181.72,242.18c.85,1.41,1.28,3.32,1.28,5.72,0,3.53-.85,6.78-2.55,9.74l-63.94,110.53c-1.56,2.82-3.92,5.23-7.09,7.2-3.18,1.98-6.11,2.97-8.79,2.97h-50.82c-3.95,0-5.93-1.69-5.93-5.09,0-1.56.5-3.24,1.48-5.08l64.59-111.8,33.88-58.44c2.11-3.66,4.3-5.5,6.56-5.5,1.27,0,2.33.64,3.17,1.91l28.17,47.85Z"/>
      <path class="cls-1" d="m1222.21,330.47c-3.11,1.97-5.44,4.36-7,7.17l-11.87,20.26c-.86,1.86-1.28,3.57-1.28,5.13,0,3.43,1.91,5.14,5.72,5.14,2.83,0,5.83-.99,9-2.97,3.18-1.98,5.54-4.37,7.1-7.2l5.93-10.16c1.55-2.82,3.92-5.23,7.1-7.2,3.17-1.98,6.17-2.96,9-2.96h50.81c3.81,0,5.72,1.69,5.72,5.08,0,1.56-.5,3.25-1.48,5.09l-11.86,20.33c-1.56,2.82-3.91,5.22-7.09,7.2-3.18,1.97-6.11,2.96-8.79,2.96h-142.28c-3.95,0-5.93-1.69-5.93-5.09,0-1.54.5-3.24,1.49-5.08l52.93-91.47c1.55-2.83,3.92-5.23,7.09-7.2,3.17-1.98,6.18-2.96,9-2.96h142.29c3.81,0,5.72,1.69,5.72,5.08,0,1.56-.5,3.25-1.49,5.09l-23.53,40.65c-1.55,2.83-3.92,5.23-7.1,7.2-3.17,1.98-6.18,2.96-9,2.96h-71.25c-2.82,0-5.79,1-8.9,2.96m10.53-23.42c-.97,1.87-1.47,3.58-1.47,5.15,0,3.43,1.98,5.15,5.93,5.15,2.82,0,5.78-.99,8.9-2.97,3.11-1.97,5.5-4.37,7.2-7.2l11.64-20.32c.99-1.84,1.48-3.53,1.48-5.08,0-3.4-1.91-5.09-5.73-5.09-2.83,0-5.81.98-8.92,2.95-3.12,1.97-5.52,4.36-7.21,7.18l-11.82,20.22Z"/>
    </g>
  </g>
</svg>